<svg width="41" height="43" viewBox="0 0 41 43" fill="none" xmlns="http://www.w3.org/2000/svg">
<path fill-rule="evenodd" clip-rule="evenodd" d="M38.8654 25.3733L36.7974 21.7739V16.4582L38.0582 15.2428C38.0582 15.2428 37.4937 10.3809 35.8583 7.37099C34.2229 4.36104 32.044 2.06054 32.044 2.06054L26.0351 0L24.8692 0.798132H15.2254L14.0595 0L8.05058 2.06575C8.05058 2.06575 5.87703 4.36625 4.23631 7.3762C2.60087 10.3862 2.03638 15.248 2.03638 15.248L3.29725 16.4634V21.7791L1.22922 25.3785L0 26.281V30.209C3.29198 32.5826 3.10206 34.6066 3.10206 34.6066L6.56285 37.6739C9.5383 37.7522 11.7171 38.8946 12.8092 40.1831C13.9012 41.4716 15.6897 41.5394 15.6897 41.5394V39.3276L14.5607 38.5294V34.4449L16.3386 32.6869L15.2623 30.6681L17.5678 28.3624H22.5374L24.8428 30.6681L23.7666 32.6869L25.5445 34.4449V38.5294L24.4155 39.3276V41.5394C24.4155 41.5394 26.2039 41.4716 27.296 40.1831C28.388 38.8946 30.5669 37.7522 33.5423 37.6739L37.0031 34.6066C37.0031 34.6066 36.8132 32.5826 40.1052 30.209V26.281L38.8654 25.3733ZM15.7371 5.22698H24.3628V11.6851H15.7371V5.22698ZM15.7371 12.2745H24.3628V14.1577L23.5292 15.248H16.5707L15.7371 14.1577V12.2745ZM12.672 34.3927V37.3897L9.61743 35.9159H7.52829L4.67419 33.4277L3.73513 30.8246L7.10624 30.2038L12.672 34.3927ZM26.2409 29.2231L23.0544 26.5366H17.0402L13.8537 29.2231C13.8537 29.2231 11.3848 29.2335 9.96562 28.4354C8.54121 27.6321 6.73167 24.6169 6.41514 23.4014C6.0986 22.186 6.2727 19.0404 6.2727 19.0404L6.99545 18.2944L7.97672 17.9293L9.42751 16.7712C9.42751 16.7712 12.3977 16.1765 13.2418 15.9366C14.0204 15.7152 14.6195 16.2795 15.0224 16.6591C15.0563 16.691 15.0888 16.7216 15.1199 16.7503C15.5208 17.1207 15.7635 17.2563 16.2541 17.2563H23.8352C24.3258 17.2563 24.5685 17.1207 24.9694 16.7503C25.0005 16.7216 25.033 16.691 25.0669 16.6591C25.4698 16.2795 26.0689 15.7152 26.8476 15.9366C27.6917 16.1765 30.6618 16.7712 30.6618 16.7712L32.1126 17.9293L33.0939 18.2944L33.8166 19.0404C33.8166 19.0404 33.996 22.1808 33.6742 23.4014C33.3577 24.6169 31.5429 27.6321 30.1237 28.4354C28.7099 29.2388 26.2409 29.2231 26.2409 29.2231ZM35.4204 33.4329L32.5663 35.9212H30.4772L27.4173 37.3975V34.4031L32.9831 30.2143L36.3542 30.835L35.4204 33.4329Z" fill="white"/>
<path d="M21.4875 35.6551H18.607L17.3567 33.5841L16.2646 34.4709V41.915L17.2511 43H22.8433L23.8298 41.915V34.4709L22.7378 33.5841L21.4875 35.6551Z" fill="white"/>
<path d="M23.4658 30.788L22.4265 32.6138H17.6679L16.6286 30.788L18.1744 29.2856H21.9201L23.4658 30.788Z" fill="white"/>
</svg>
